<?xml version="1.0" encoding="utf-8"?>
<!-- Generator: Adobe Illustrator 19.1.0, SVG Export Plug-In . SVG Version: 6.00 Build 0)  -->
<!DOCTYPE svg PUBLIC "-//W3C//DTD SVG 1.1//EN" "http://www.w3.org/Graphics/SVG/1.1/DTD/svg11.dtd">
<svg version="1.1" id="Camada_1" xmlns="http://www.w3.org/2000/svg" xmlns:xlink="http://www.w3.org/1999/xlink" x="0px" y="0px"
	 viewBox="-371 245 72 72" style="enable-background:new -371 245 72 72;" xml:space="preserve">
<style type="text/css">
	.st0{display:none;}
	.st1{fill:#FCB316;}
	.st2{opacity:0.2;}
	.st3{fill:#DC3126;}
	.st4{fill:#E0E0E0;}
	.st5{fill:#FFFFFF;}
	.st6{fill:#757576;}
</style>
<g id="Layer_2">
	<g>
		<circle class="st1" cx="-335" cy="281" r="36"/>
		<g class="st2">
			<path d="M-325.9,266.4c-3.4,0-6.5,1.4-8.7,3.7c-2.2-2.3-5.2-3.7-8.7-3.7c-6.5,0-11.8,5.2-11.8,11.7c0,1.7,0.3,3.4,0.8,5
				c0,0,0.5,1.4,0.9,2.2c5,10.1,18.7,16.7,18.7,16.7s13.7-6.6,18.7-16.7c0,0,0.6-1.3,0.9-2.2c0.5-1.6,0.9-3.3,0.9-5
				C-314,271.6-319.3,266.4-325.9,266.4z"/>
		</g>
		<g>
			<path class="st3" d="M-326.3,266.1c-3.4,0-6.5,1.4-8.7,3.7c-2.2-2.3-5.2-3.7-8.7-3.7c-6.5,0-11.8,5.2-11.8,11.7
				c0,1.7,0.3,3.4,0.8,5c0,0,0.5,1.4,0.9,2.2c5,10.1,18.7,16.7,18.7,16.7s13.7-6.6,18.7-16.7c0,0,0.6-1.3,0.9-2.2
				c0.5-1.6,0.9-3.3,0.9-5C-314.5,271.3-319.8,266.1-326.3,266.1z"/>
		</g>
		<g class="st2">
			<path d="M-322.5,302.1c5.3,0,9.7-4.3,9.7-9.7s-4.3-9.7-9.7-9.7c-5.3,0-9.7,4.3-9.7,9.7S-327.9,302.1-322.5,302.1z"/>
			<path d="M-322.5,300.3c4.3,0,7.9-3.5,7.9-7.9c0-4.3-3.5-7.9-7.9-7.9c-4.3,0-7.9,3.5-7.9,7.9
				C-330.4,296.7-326.9,300.3-322.5,300.3z"/>
			<path d="M-318.5,288.4L-318.5,288.4c0.2,0.2,0.2,0.5,0,0.6l-3.4,3.4c-0.2,0.2-0.5,0.2-0.6,0l0,0c-0.2-0.2-0.2-0.5,0-0.6l3.4-3.4
				C-319,288.2-318.7,288.2-318.5,288.4z"/>
			<circle cx="-322.5" cy="285.7" r="0.5"/>
			<circle cx="-315.6" cy="292.6" r="0.5"/>
			<circle cx="-322.5" cy="299.6" r="0.5"/>
			<circle cx="-329.4" cy="292.7" r="0.5"/>
			<path d="M-322.5,293.6c0.6,0,1.2-0.5,1.2-1.2s-0.5-1.2-1.2-1.2c-0.6,0-1.2,0.5-1.2,1.2C-323.7,293.1-323.2,293.6-322.5,293.6z"/>
		</g>
		<g>
			<path class="st4" d="M-322.8,301.7c5.3,0,9.7-4.3,9.7-9.7c0-5.3-4.3-9.7-9.7-9.7c-5.3,0-9.7,4.3-9.7,9.7
				C-332.5,297.4-328.2,301.7-322.8,301.7z"/>
			<path class="st5" d="M-322.8,299.9c4.3,0,7.9-3.5,7.9-7.9c0-4.3-3.5-7.9-7.9-7.9c-4.3,0-7.9,3.5-7.9,7.9
				C-330.7,296.4-327.2,299.9-322.8,299.9z"/>
			<path class="st6" d="M-318.8,288.1L-318.8,288.1c0.2,0.2,0.2,0.5,0,0.6l-3.4,3.4c-0.2,0.2-0.5,0.2-0.6,0l0,0
				c-0.2-0.2-0.2-0.5,0-0.6l3.4-3.4C-319.3,287.9-319,287.9-318.8,288.1z"/>
			<circle class="st6" cx="-322.8" cy="285.4" r="0.5"/>
			<circle class="st6" cx="-315.9" cy="292.2" r="0.5"/>
			<circle class="st6" cx="-322.8" cy="299.2" r="0.5"/>
			<circle class="st6" cx="-329.7" cy="292.3" r="0.5"/>
			<path class="st6" d="M-322.8,293.2c0.6,0,1.2-0.5,1.2-1.2c0-0.6-0.5-1.2-1.2-1.2c-0.6,0-1.2,0.5-1.2,1.2
				S-323.5,293.2-322.8,293.2z"/>
		</g>
	</g>
</g>
</svg>
