<?xml version="1.0" encoding="utf-8"?>
<!-- Generator: Adobe Illustrator 19.1.0, SVG Export Plug-In . SVG Version: 6.00 Build 0)  -->
<!DOCTYPE svg PUBLIC "-//W3C//DTD SVG 1.1//EN" "http://www.w3.org/Graphics/SVG/1.1/DTD/svg11.dtd">
<svg version="1.1" id="Camada_1" xmlns="http://www.w3.org/2000/svg" xmlns:xlink="http://www.w3.org/1999/xlink" x="0px" y="0px"
	 viewBox="-371 245 72 72" style="enable-background:new -371 245 72 72;" xml:space="preserve">
<style type="text/css">
	.st0{display:none;}
	.st1{fill:#36C2D6;}
	.st2{opacity:0.2;}
	.st3{fill:#DC3126;}
	.st4{clip-path:url(#SVGID_2_);}
	.st5{clip-path:url(#SVGID_4_);}
	.st6{fill:#EEEEEE;}
	.st7{fill:#2C3229;}
	.st8{fill:#783293;}
	.st9{clip-path:url(#SVGID_6_);fill:#863B96;}
	.st10{clip-path:url(#SVGID_8_);fill:#863B96;}
</style>
<g id="Layer_2">
	<g>
		<circle class="st1" cx="-335" cy="281" r="36"/>
		<g>
			<g class="st2">
				<path d="M-323,268.5c-3.3,0-6.3,1.4-8.3,3.6c-2.1-2.2-5-3.6-8.3-3.6c-6.3,0-11.4,5-11.4,11.2c0,1.7,0.3,3.3,0.8,4.8
					c0,0,0.5,1.4,0.9,2.1c4.8,9.7,18,16,18,16s13.2-6.3,18-16c0,0,0.6-1.3,0.9-2.1c0.5-1.5,0.8-3.1,0.8-4.8
					C-311.6,273.6-316.7,268.5-323,268.5z"/>
			</g>
			<g>
				<path class="st3" d="M-323.4,268.1c-3.3,0-6.3,1.4-8.4,3.6c-2.1-2.2-5.1-3.6-8.4-3.6c-6.3,0-11.4,5.1-11.4,11.3
					c0,1.7,0.3,3.3,0.8,4.8c0,0,0.5,1.4,0.9,2.2c4.8,9.8,18.1,16.1,18.1,16.1s13.3-6.3,18.1-16.1c0,0,0.6-1.3,0.9-2.2
					c0.5-1.5,0.8-3.2,0.8-4.8C-312,273.1-317.1,268.1-323.4,268.1z"/>
			</g>
			<g class="st2">
				<g>
					<path d="M-323.2,296c-0.2,0-0.5-0.1-0.7-0.3l-19.8-19.8c-0.4-0.4-0.4-1,0-1.3c0.4-0.4,1-0.4,1.3,0l19.8,19.8
						c0.4,0.4,0.4,1,0,1.3C-322.7,295.9-322.9,296-323.2,296z"/>
				</g>
				<g>
					<path d="M-320.9,296.7c-1.1,0-2.1-0.3-2.8-1c-0.4-0.4-0.4-0.9,0-1.2c0.4-0.4,1-0.3,1.3,0c0.4,0.4,0.9,0.6,1.5,0.6
						c0.6,0,1.2-0.2,1.6-0.7c0.8-0.8,0.8-2.2,0-3c-0.4-0.4-0.4-1,0-1.3c0.4-0.4,1-0.4,1.3,0c1.6,1.6,1.6,4,0,5.5
						C-318.7,296.4-319.7,296.7-320.9,296.7C-320.8,296.7-320.8,296.7-320.9,296.7z"/>
				</g>
			</g>
			<g class="st2">
				<g>
					<path d="M-323.2,296.4c-0.4,0-0.7-0.1-1-0.4l-3.9-3.9l2-2l3.9,3.9c0.5,0.5,0.5,1.4,0,2C-322.5,296.3-322.8,296.4-323.2,296.4z"
						/>
				</g>
				<g>
					<path d="M-320.9,297.9c-1.2,0-2.3-0.7-3.1-1.5c-0.5-0.5-0.5-1.6,0-2.1c0.5-0.5,1.4-0.6,2-0.1c0.3,0.3,0.7,0.5,1.2,0.4
						c0.5,0,0.9-0.2,1.2-0.5c0.7-0.7,0.7-1.7,0-2.4c-0.5-0.5-0.5-1.4,0-2c0.5-0.5,1.4-0.5,2,0c1.7,1.7,1.7,4.8,0,6.6
						C-318.4,297.2-319.6,297.9-320.9,297.9C-320.8,297.9-320.8,297.9-320.9,297.9z"/>
				</g>
			</g>
			<g class="st2">
				<path d="M-353.7,264.1c-0.2,0.2,0.7,1.5,2,2.8l0.8-0.8C-352.3,264.8-353.5,263.9-353.7,264.1z"/>
				<g>
					<g>
						<path id="XMLID_4_" d="M-348.9,288.8c2.6-2.6,5.7-3.7,7-2.8l0,0c-0.9-1.4,0.2-4.5,2.8-7c2.6-2.6,5.7-3.7,7-2.8l0,0
							c-0.9-1.4,0.2-4.5,2.8-7c2.6-2.6,5.7-3.7,7-2.8l0.1-0.1c-8.2-8.2-21.5-8.2-29.7,0c-8.2,8.2-8.2,21.4,0,29.7l0.1-0.1
							C-352.6,294.4-351.4,291.3-348.9,288.8z"/>
					</g>
					<g>
						<defs>
							<path id="SVGID_1_" d="M-348.9,288.8c2.6-2.6,5.7-3.7,7-2.8l0,0c-0.9-1.4,0.2-4.5,2.8-7c2.6-2.6,5.7-3.7,7-2.8l0,0
								c-0.9-1.4,0.2-4.5,2.8-7c2.6-2.6,5.7-3.7,7-2.8l0.1-0.1c-8.2-8.2-21.5-8.2-29.7,0c-8.2,8.2-8.2,21.4,0,29.7l0.1-0.1
								C-352.6,294.4-351.4,291.3-348.9,288.8z"/>
						</defs>
						<clipPath id="SVGID_2_">
							<use xlink:href="#SVGID_1_"  style="overflow:visible;"/>
						</clipPath>
						<path class="st4" d="M-341.1,286.9c-7.1-7.1-14.1-17.2-11-20.3c4.4-4.4-2.1-2.3-2.1-2.3l-11.2,16.5l14.4,17.8L-341.1,286.9z"
							/>
					</g>
					<g>
						<defs>
							<path id="SVGID_3_" d="M-348.9,288.8c2.6-2.6,5.7-3.7,7-2.8l0,0c-0.9-1.4,0.2-4.5,2.8-7c2.6-2.6,5.7-3.7,7-2.8l0,0
								c-0.9-1.4,0.2-4.5,2.8-7c2.6-2.6,5.7-3.7,7-2.8l0.1-0.1c-8.2-8.2-21.5-8.2-29.7,0c-8.2,8.2-8.2,21.4,0,29.7l0.1-0.1
								C-352.6,294.4-351.4,291.3-348.9,288.8z"/>
						</defs>
						<clipPath id="SVGID_4_">
							<use xlink:href="#SVGID_3_"  style="overflow:visible;"/>
						</clipPath>
						<path class="st5" d="M-331.1,276.9c-7.1-7.1-17.2-14.1-20.3-11c-4.4,4.4-2.3-2.1-2.3-2.1l16.5-11.2l17.8,14.4L-331.1,276.9z"
							/>
					</g>
				</g>
			</g>
			<g>
				<g>
					<path class="st6" d="M-323.2,295.5c-0.2,0-0.5-0.1-0.7-0.3l-19.8-19.8c-0.4-0.4-0.4-1,0-1.3c0.4-0.4,1-0.4,1.3,0l19.8,19.8
						c0.4,0.4,0.4,1,0,1.3C-322.7,295.4-322.9,295.5-323.2,295.5z"/>
				</g>
				<g>
					<path class="st6" d="M-320.9,296.1c-1.1,0-2.1-0.2-2.8-0.9c-0.4-0.4-0.4-0.8,0-1.2c0.4-0.4,1-0.3,1.3,0.1
						c0.4,0.4,0.9,0.6,1.5,0.6c0.6,0,1.2-0.2,1.6-0.6c0.8-0.8,0.8-2.2,0-3c-0.4-0.4-0.4-1,0-1.3c0.4-0.4,1-0.4,1.3,0
						c1.6,1.6,1.6,3.9,0,5.5C-318.7,295.8-319.7,296.1-320.9,296.1C-320.8,296.1-320.8,296.1-320.9,296.1z"/>
				</g>
			</g>
			<g>
				<g>
					<path class="st7" d="M-323.2,296c-0.4,0-0.7-0.1-1-0.4l-3.9-3.9l2-2l3.9,3.9c0.5,0.5,0.5,1.4,0,2
						C-322.5,295.8-322.8,296-323.2,296z"/>
				</g>
				<g>
					<path class="st7" d="M-320.9,296.7c-1.2,0-2.3-0.3-3.1-1.1c-0.5-0.5-0.5-1.4,0-1.9c0.5-0.5,1.4-0.5,2,0
						c0.3,0.3,0.7,0.5,1.2,0.5c0.5,0,0.9-0.2,1.2-0.5c0.7-0.7,0.7-1.7,0-2.4c-0.5-0.5-0.5-1.4,0-2c0.5-0.5,1.4-0.5,2,0
						c1.7,1.7,1.7,4.4,0,6.2C-318.4,296.3-319.6,296.7-320.9,296.7C-320.8,296.7-320.8,296.7-320.9,296.7z"/>
				</g>
			</g>
			<g class="st2">
				<path d="M-323.4,268.1c-3.3,0-6.3,1.4-8.4,3.6c-2.1-2.2-5.1-3.6-8.4-3.6c-6.3,0-11.4,5.1-11.4,11.3c0,1.7,0.3,3.3,0.8,4.8
					c0,0,0.5,1.4,0.9,2.2c1.1,2.3,4.3,6.5,6.4,8.1l25.2-25.3C-321.1,268-323.4,268.1-323.4,268.1z"/>
			</g>
			<g>
				<path class="st7" d="M-353.7,263.7c-0.2,0.2,0.7,1.5,2,2.8l0.8-0.8C-352.3,264.3-353.5,263.4-353.7,263.7z"/>
				<g>
					<g>
						<path id="XMLID_3_" class="st8" d="M-348.9,288.3c2.6-2.6,5.7-3.7,7-2.8l0,0c-0.9-1.4,0.2-4.5,2.8-7c2.6-2.6,5.7-3.7,7-2.8
							l0,0c-0.9-1.4,0.2-4.5,2.8-7c2.6-2.6,5.7-3.7,7-2.8l0.1-0.1c-8.2-8.2-21.5-8.2-29.7,0c-8.2,8.2-8.2,21.4,0,29.7l0.1-0.1
							C-352.6,294-351.4,290.9-348.9,288.3z"/>
					</g>
					<g>
						<defs>
							<path id="SVGID_5_" d="M-348.9,288.3c2.6-2.6,5.7-3.7,7-2.8l0,0c-0.9-1.4,0.2-4.5,2.8-7c2.6-2.6,5.7-3.7,7-2.8l0,0
								c-0.9-1.4,0.2-4.5,2.8-7c2.6-2.6,5.7-3.7,7-2.8l0.1-0.1c-8.2-8.2-21.5-8.2-29.7,0c-8.2,8.2-8.2,21.4,0,29.7l0.1-0.1
								C-352.6,294-351.4,290.9-348.9,288.3z"/>
						</defs>
						<clipPath id="SVGID_6_">
							<use xlink:href="#SVGID_5_"  style="overflow:visible;"/>
						</clipPath>
						<path class="st9" d="M-341.1,286.4c-7.1-7.1-14.1-17.2-11-20.3c4.4-4.4-2.1-2.3-2.1-2.3l-11.2,16.5l14.4,17.8L-341.1,286.4z"
							/>
					</g>
					<g>
						<defs>
							<path id="SVGID_7_" d="M-348.9,288.3c2.6-2.6,5.7-3.7,7-2.8l0,0c-0.9-1.4,0.2-4.5,2.8-7c2.6-2.6,5.7-3.7,7-2.8l0,0
								c-0.9-1.4,0.2-4.5,2.8-7c2.6-2.6,5.7-3.7,7-2.8l0.1-0.1c-8.2-8.2-21.5-8.2-29.7,0c-8.2,8.2-8.2,21.4,0,29.7l0.1-0.1
								C-352.6,294-351.4,290.9-348.9,288.3z"/>
						</defs>
						<clipPath id="SVGID_8_">
							<use xlink:href="#SVGID_7_"  style="overflow:visible;"/>
						</clipPath>
						<path class="st10" d="M-331.1,276.4c-7.1-7.1-17.2-14.1-20.3-11c-4.4,4.4-2.3-2.1-2.3-2.1l16.5-11.2l17.8,14.4L-331.1,276.4z"
							/>
					</g>
				</g>
			</g>
		</g>
	</g>
</g>
</svg>
