<?xml version="1.0" encoding="utf-8"?>
<!-- Generator: Adobe Illustrator 19.1.0, SVG Export Plug-In . SVG Version: 6.00 Build 0)  -->
<!DOCTYPE svg PUBLIC "-//W3C//DTD SVG 1.1//EN" "http://www.w3.org/Graphics/SVG/1.1/DTD/svg11.dtd">
<svg version="1.1" id="Camada_1" xmlns="http://www.w3.org/2000/svg" xmlns:xlink="http://www.w3.org/1999/xlink" x="0px" y="0px"
	 viewBox="-371 245 72 72" style="enable-background:new -371 245 72 72;" xml:space="preserve">
<style type="text/css">
	.st0{display:none;}
	.st1{fill:#903F98;}
	.st2{fill:#5AC7DA;}
	.st3{opacity:0.2;enable-background:new    ;}
	.st4{fill:#EEEEEE;}
	.st5{fill:#FEC40D;}
	.st6{fill:#FEE580;}
	.st7{fill:#FBAA19;}
	.st8{fill:#DC3126;}
</style>
<g id="Layer_2">
	<g>
		<circle class="st1" cx="-335" cy="281" r="36"/>
		<g>
			<g>
				<rect x="-353.8" y="289.7" class="st2" width="13.1" height="12.7"/>
				<rect x="-340.9" y="284" class="st2" width="13.8" height="18.5"/>
				<rect x="-327.1" y="292.6" class="st2" width="13.1" height="9.8"/>
				<polygon class="st3" points="-325.8,292.6 -327.1,292.6 -327.1,302.4 -324.9,302.4 				"/>
				<polygon class="st3" points="-342.3,289.7 -340.9,289.7 -340.9,302.4 -343.1,302.4 				"/>
				<polygon class="st4" points="-335.2,290.8 -335.3,290.8 -336.9,291.5 -337.3,289.8 -334.9,288.7 -333,288.7 -333,297.1 
					-335.2,297.1 				"/>
			</g>
			<g>
				<g>
					<path class="st5" d="M-326.4,266.3c-0.4,0.7-1,1.3-1.5,1.6c0.7-1.8,1.2-3.9,1.5-6.1h1.3C-325.2,263.5-325.7,265.1-326.4,266.3
						 M-341,266.3c-0.7-1.2-1.2-2.8-1.3-4.5h1.3c0.3,2.3,0.8,4.4,1.5,6.1C-340.1,267.5-340.6,267-341,266.3 M-326.4,260.6
						c0-0.5,0.1-0.9,0.1-1.4c-0.6,0-1.1-0.5-1.1-1.2h-12.7c0,0.6-0.5,1.2-1.1,1.2c0,0.5,0,0.9,0.1,1.4h-2.3l0,0.6
						c0,2.1,0.5,4.2,1.5,5.7c0.8,1.4,1.9,2.2,3.1,2.4c1.2,2.3,2.8,3.9,4.5,4.2c-0.2,4.2-1.6,7.6-3.4,8.5v0.7h8v-0.7
						c-1.8-0.9-3.2-4.2-3.4-8.4c1.8-0.3,3.4-1.8,4.6-4.2c1.2-0.2,2.3-1.1,3.1-2.4c0.9-1.5,1.5-3.6,1.5-5.7l0-0.6L-326.4,260.6
						L-326.4,260.6z"/>
				</g>
				<path class="st5" d="M-334.4,273.5c-0.2,4.2-1.6,7.6-3.4,8.5v0.7h8v-0.7c-1.8-0.9-3.2-4.2-3.4-8.4L-334.4,273.5z"/>
				<path class="st6" d="M-339,264.5c-0.1,0-0.2-0.1-0.2-0.2c-0.3-1-0.5-2.2-0.6-3.4c0-0.1,0.1-0.2,0.2-0.3c0.1,0,0.2,0.1,0.3,0.2
					c0.1,1.2,0.3,2.3,0.6,3.3C-338.7,264.3-338.8,264.4-339,264.5C-338.9,264.5-339,264.5-339,264.5"/>
				<path class="st7" d="M-328.8,284h-10v-0.8c0-0.3,0.3-0.6,0.6-0.6h8.9c0.3,0,0.6,0.3,0.6,0.6C-328.8,283.2-328.8,284-328.8,284z"
					/>
			</g>
			<g>
				<path class="st8" d="M-331.5,260.9c-0.8,0-1.5,0.3-1.9,0.8c-0.5-0.5-1.2-0.8-1.9-0.8c-1.5,0-2.7,1.2-2.7,2.6
					c0,0.4,0.1,0.8,0.2,1.1c0,0,0.1,0.3,0.2,0.5c1.1,2.3,4.2,3.7,4.2,3.7s3.1-1.5,4.2-3.7c0,0,0.1-0.3,0.2-0.5
					c0.1-0.4,0.2-0.7,0.2-1.1C-328.8,262.1-330,260.9-331.5,260.9z"/>
			</g>
		</g>
	</g>
</g>
</svg>
