<?xml version="1.0" encoding="utf-8"?>
<!-- Generator: Adobe Illustrator 19.1.0, SVG Export Plug-In . SVG Version: 6.00 Build 0)  -->
<!DOCTYPE svg PUBLIC "-//W3C//DTD SVG 1.1//EN" "http://www.w3.org/Graphics/SVG/1.1/DTD/svg11.dtd">
<svg version="1.1" id="Camada_1" xmlns="http://www.w3.org/2000/svg" xmlns:xlink="http://www.w3.org/1999/xlink" x="0px" y="0px"
	 viewBox="-371 245 72 72" style="enable-background:new -371 245 72 72;" xml:space="preserve">
<style type="text/css">
	.st0{display:none;}
	.st1{fill:#F05455;}
	.st2{opacity:0.2;}
	.st3{fill:#76C043;}
	.st4{fill:#FFFFFF;}
	.st5{opacity:0.2;enable-background:new    ;}
	.st6{fill:#FCB316;}
</style>
<g id="Layer_2">
	<g>
		<circle class="st1" cx="-335" cy="281" r="36"/>
		<g>
			<g class="st2">
				<path d="M-314.4,295v-16.2c0-0.6-0.5-1.1-1.1-1.1h-28.1c-0.6,0-1.1,0.5-1.1,1.1V295c0,0.6,0.5,1.1,1.1,1.1h28.1
					C-314.9,296.1-314.4,295.6-314.4,295z"/>
				<rect x="-342.5" y="279.9" width="26" height="14"/>
				<path d="M-341.7,282.5c-0.1,0.1-0.1,0.2-0.1,0.2v8.4c0,0.1,0,0.2,0.1,0.2c0.1,0.1,0.2,0.1,0.3,0.1c0.1,0,0.1,0,0.2,0
					c0.7,0,1.3,0.6,1.3,1.3c0,0,0,0.1,0,0.1c0,0.1,0,0.2,0.1,0.2c0.1,0.1,0.1,0.1,0.2,0.1h20.1c0.1,0,0.2,0,0.2-0.1
					c0.1-0.1,0.1-0.2,0.1-0.2c0,0,0-0.1,0-0.1c0-0.7,0.6-1.3,1.3-1.3c0.1,0,0.1,0,0.2,0c0.1,0,0.2,0,0.3-0.1
					c0.1-0.1,0.1-0.2,0.1-0.2v-8.4c0-0.1,0-0.2-0.1-0.2c-0.1-0.1-0.2-0.1-0.3-0.1c-0.1,0-0.1,0-0.2,0c-0.7,0-1.3-0.6-1.3-1.3
					c0,0,0-0.1,0-0.1c0-0.1,0-0.2-0.1-0.2c-0.1-0.1-0.1-0.1-0.2-0.1h-20.1c-0.1,0-0.2,0-0.2,0.1c-0.1,0.1-0.1,0.2-0.1,0.2
					c0,0,0,0.1,0,0.1c0,0.7-0.6,1.3-1.3,1.3c-0.1,0-0.1,0-0.2,0C-341.5,282.4-341.6,282.4-341.7,282.5z"/>
				<path d="M-334.2,287c0-2.6,2.1-4.7,4.7-4.7c2.6,0,4.7,2.1,4.7,4.7c0,2.6-2.1,4.7-4.7,4.7S-334.2,289.5-334.2,287z"/>
				<path d="M-329.8,285.2c-0.6,0-1.1,0.2-1.5,0.4l-0.3-1c0.3-0.2,0.9-0.4,1.5-0.4v-0.8h0.9v0.9c1,0.2,1.6,0.8,1.6,1.6
					c0,0.8-0.4,1.3-1.5,1.7c-0.8,0.3-1.1,0.5-1.1,0.8c0,0.2,0.2,0.5,0.8,0.5c0.6,0,1.1-0.2,1.3-0.3l0.3,1c-0.3,0.1-0.7,0.3-1.3,0.3
					v0.8h-0.9v-0.8c-0.9-0.2-1.5-0.8-1.5-1.6c0-0.9,0.6-1.3,1.6-1.6c0.7-0.2,0.9-0.4,0.9-0.8C-328.9,285.4-329.3,285.2-329.8,285.2z
					"/>
			</g>
			<g>
				<path class="st3" d="M-314.6,294.8v-16.2c0-0.6-0.5-1.1-1.1-1.1h-28.1c-0.6,0-1.1,0.5-1.1,1.1v16.2c0,0.6,0.5,1.1,1.1,1.1h28.1
					C-315.1,295.8-314.6,295.4-314.6,294.8z"/>
				<rect x="-342.7" y="279.7" class="st4" width="26" height="14"/>
				<path class="st3" d="M-341.9,282.2c-0.1,0.1-0.1,0.2-0.1,0.2v8.4c0,0.1,0,0.2,0.1,0.2c0.1,0.1,0.2,0.1,0.3,0.1
					c0.1,0,0.1,0,0.2,0c0.7,0,1.3,0.6,1.3,1.3c0,0,0,0.1,0,0.1c0,0.1,0,0.2,0.1,0.2c0.1,0.1,0.1,0.1,0.2,0.1h20.1
					c0.1,0,0.2,0,0.2-0.1c0.1-0.1,0.1-0.2,0.1-0.2c0,0,0-0.1,0-0.1c0-0.7,0.6-1.3,1.3-1.3c0.1,0,0.1,0,0.2,0c0.1,0,0.2,0,0.3-0.1
					c0.1-0.1,0.1-0.2,0.1-0.2v-8.4c0-0.1,0-0.2-0.1-0.2c-0.1-0.1-0.2-0.1-0.3-0.1c-0.1,0-0.1,0-0.2,0c-0.7,0-1.3-0.6-1.3-1.3
					c0,0,0-0.1,0-0.1c0-0.1,0-0.2-0.1-0.2c-0.1-0.1-0.1-0.1-0.2-0.1h-20.1c-0.1,0-0.2,0-0.2,0.1c-0.1,0.1-0.1,0.2-0.1,0.2
					c0,0,0,0.1,0,0.1c0,0.7-0.6,1.3-1.3,1.3c-0.1,0-0.1,0-0.2,0C-341.7,282.1-341.8,282.1-341.9,282.2z"/>
				<path class="st4" d="M-334.4,286.7c0-2.6,2.1-4.7,4.7-4.7c2.6,0,4.7,2.1,4.7,4.7c0,2.6-2.1,4.7-4.7,4.7
					C-332.3,291.4-334.4,289.3-334.4,286.7z"/>
				<path class="st3" d="M-330,284.9c-0.6,0-1.1,0.2-1.5,0.4l-0.3-1c0.3-0.2,0.9-0.4,1.5-0.4V283h0.9v0.9c1,0.2,1.6,0.8,1.6,1.6
					c0,0.8-0.4,1.3-1.5,1.7c-0.8,0.3-1.1,0.5-1.1,0.8c0,0.2,0.2,0.5,0.8,0.5c0.6,0,1.1-0.2,1.3-0.3l0.3,1c-0.3,0.1-0.7,0.3-1.3,0.3
					v0.8h-0.9v-0.8c-0.9-0.2-1.5-0.8-1.5-1.6c0-0.9,0.6-1.3,1.6-1.6c0.7-0.2,0.9-0.4,0.9-0.8C-329.1,285.1-329.5,284.9-330,284.9z"
					/>
			</g>
			<g class="st2">
				<path d="M-317.3,292.1V276c0-0.6-0.5-1.1-1.1-1.1h-28.1c-0.6,0-1.1,0.5-1.1,1.1v16.2c0,0.6,0.5,1.1,1.1,1.1h28.1
					C-317.8,293.2-317.3,292.7-317.3,292.1z"/>
				<rect x="-345.4" y="277" width="26" height="14"/>
				<path d="M-344.5,279.6c-0.1,0.1-0.1,0.2-0.1,0.2v8.4c0,0.1,0,0.2,0.1,0.2c0.1,0.1,0.2,0.1,0.3,0.1c0.1,0,0.1,0,0.2,0
					c0.7,0,1.3,0.6,1.3,1.3c0,0,0,0.1,0,0.1c0,0.1,0,0.2,0.1,0.2c0.1,0.1,0.1,0.1,0.2,0.1h20.1c0.1,0,0.2,0,0.2-0.1
					c0.1-0.1,0.1-0.2,0.1-0.2c0,0,0-0.1,0-0.1c0-0.7,0.6-1.3,1.3-1.3c0.1,0,0.1,0,0.2,0c0.1,0,0.2,0,0.3-0.1
					c0.1-0.1,0.1-0.2,0.1-0.2v-8.4c0-0.1,0-0.2-0.1-0.2c-0.1-0.1-0.2-0.1-0.3-0.1c-0.1,0-0.1,0-0.2,0c-0.7,0-1.3-0.6-1.3-1.3
					c0,0,0-0.1,0-0.1c0-0.1,0-0.2-0.1-0.2c-0.1-0.1-0.1-0.1-0.2-0.1h-20.1c-0.1,0-0.2,0-0.2,0.1c-0.1,0.1-0.1,0.2-0.1,0.2
					c0,0,0,0.1,0,0.1c0,0.7-0.6,1.3-1.3,1.3c-0.1,0-0.1,0-0.2,0C-344.4,279.5-344.5,279.5-344.5,279.6z"/>
				<path d="M-337.1,284c0-2.6,2.1-4.7,4.7-4.7s4.7,2.1,4.7,4.7c0,2.6-2.1,4.7-4.7,4.7S-337.1,286.6-337.1,284z"/>
				<path d="M-332.7,282.3c-0.6,0-1.1,0.2-1.5,0.4l-0.3-1c0.3-0.2,0.9-0.4,1.5-0.4v-0.8h0.9v0.9c1,0.2,1.6,0.8,1.6,1.6
					c0,0.8-0.4,1.3-1.5,1.7c-0.8,0.3-1.1,0.5-1.1,0.8c0,0.2,0.2,0.5,0.8,0.5c0.6,0,1.1-0.2,1.3-0.3l0.3,1c-0.3,0.1-0.7,0.3-1.3,0.3
					v0.8h-0.9v-0.8c-0.9-0.2-1.5-0.8-1.5-1.6c0-0.9,0.6-1.3,1.6-1.6c0.7-0.2,0.9-0.4,0.9-0.8C-331.8,282.5-332.2,282.3-332.7,282.3z
					"/>
			</g>
			<g>
				<path class="st3" d="M-317.5,291.8v-16.2c0-0.6-0.5-1.1-1.1-1.1h-28.1c-0.6,0-1.1,0.5-1.1,1.1v16.2c0,0.6,0.5,1.1,1.1,1.1h28.1
					C-318,292.9-317.5,292.4-317.5,291.8z"/>
				<rect x="-345.6" y="276.7" class="st4" width="26" height="14"/>
				<path class="st3" d="M-344.8,279.3c-0.1,0.1-0.1,0.2-0.1,0.2v8.4c0,0.1,0,0.2,0.1,0.2c0.1,0.1,0.2,0.1,0.3,0.1
					c0.1,0,0.1,0,0.2,0c0.7,0,1.3,0.6,1.3,1.3c0,0,0,0.1,0,0.1c0,0.1,0,0.2,0.1,0.2c0.1,0.1,0.1,0.1,0.2,0.1h20.1
					c0.1,0,0.2,0,0.2-0.1c0.1-0.1,0.1-0.2,0.1-0.2c0,0,0-0.1,0-0.1c0-0.7,0.6-1.3,1.3-1.3c0.1,0,0.1,0,0.2,0c0.1,0,0.2,0,0.3-0.1
					c0.1-0.1,0.1-0.2,0.1-0.2v-8.4c0-0.1,0-0.2-0.1-0.2c-0.1-0.1-0.2-0.1-0.3-0.1c-0.1,0-0.1,0-0.2,0c-0.7,0-1.3-0.6-1.3-1.3
					c0,0,0-0.1,0-0.1c0-0.1,0-0.2-0.1-0.2c-0.1-0.1-0.1-0.1-0.2-0.1h-20.1c-0.1,0-0.2,0-0.2,0.1c-0.1,0.1-0.1,0.2-0.1,0.2
					c0,0,0,0.1,0,0.1c0,0.7-0.6,1.3-1.3,1.3c-0.1,0-0.1,0-0.2,0C-344.6,279.2-344.7,279.2-344.8,279.3z"/>
				<path class="st4" d="M-337.4,283.8c0-2.6,2.1-4.7,4.7-4.7c2.6,0,4.7,2.1,4.7,4.7c0,2.6-2.1,4.7-4.7,4.7
					C-335.3,288.4-337.4,286.3-337.4,283.8z"/>
				<path class="st3" d="M-332.9,282c-0.6,0-1.1,0.2-1.5,0.4l-0.3-1c0.3-0.2,0.9-0.4,1.5-0.4v-0.8h0.9v0.9c1,0.2,1.6,0.8,1.6,1.6
					c0,0.8-0.4,1.3-1.5,1.7c-0.8,0.3-1.1,0.5-1.1,0.8c0,0.2,0.2,0.5,0.8,0.5c0.6,0,1.1-0.2,1.3-0.3l0.3,1c-0.3,0.1-0.7,0.3-1.3,0.3
					v0.8h-0.9v-0.8c-0.9-0.2-1.5-0.8-1.5-1.6c0-0.9,0.6-1.3,1.6-1.6c0.7-0.2,0.9-0.4,0.9-0.8C-332,282.2-332.4,282-332.9,282z"/>
			</g>
			<g class="st2">
				<path d="M-350.4,289.2V273c0-0.6,0.5-1.1,1.1-1.1h28.1c0.6,0,1.1,0.5,1.1,1.1v16.2c0,0.6-0.5,1.1-1.1,1.1h-28.1
					C-349.9,290.3-350.4,289.8-350.4,289.2z"/>
				<rect x="-348.3" y="274.1" width="26" height="14"/>
				<path d="M-323.2,276.7c0.1,0.1,0.1,0.2,0.1,0.2v8.4c0,0.1,0,0.2-0.1,0.2c-0.1,0.1-0.2,0.1-0.3,0.1c-0.1,0-0.1,0-0.2,0
					c-0.7,0-1.3,0.6-1.3,1.3c0,0,0,0.1,0,0.1c0,0.1,0,0.2-0.1,0.2c-0.1,0.1-0.1,0.1-0.2,0.1h-20.1c-0.1,0-0.2,0-0.2-0.1
					c-0.1-0.1-0.1-0.2-0.1-0.2c0,0,0-0.1,0-0.1c0-0.7-0.6-1.3-1.3-1.3c-0.1,0-0.1,0-0.2,0c-0.1,0-0.2,0-0.3-0.1
					c-0.1-0.1-0.1-0.2-0.1-0.2v-8.4c0-0.1,0-0.2,0.1-0.2c0.1-0.1,0.2-0.1,0.3-0.1c0.1,0,0.1,0,0.2,0c0.7,0,1.3-0.6,1.3-1.3
					c0,0,0-0.1,0-0.1c0-0.1,0-0.2,0.1-0.2c0.1-0.1,0.1-0.1,0.2-0.1h20.1c0.1,0,0.2,0,0.2,0.1c0.1,0.1,0.1,0.2,0.1,0.2
					c0,0,0,0.1,0,0.1c0,0.7,0.6,1.3,1.3,1.3c0.1,0,0.1,0,0.2,0C-323.3,276.6-323.2,276.6-323.2,276.7z"/>
				<path d="M-330.6,281.1c0-2.6-2.1-4.7-4.7-4.7c-2.6,0-4.7,2.1-4.7,4.7c0,2.6,2.1,4.7,4.7,4.7
					C-332.7,285.8-330.6,283.7-330.6,281.1z"/>
				<path d="M-335,279.4c0.6,0,1.1,0.2,1.5,0.4l0.3-1c-0.3-0.2-0.9-0.4-1.5-0.4v-0.8h-0.9v0.9c-1,0.2-1.6,0.8-1.6,1.6
					c0,0.8,0.4,1.3,1.5,1.7c0.8,0.3,1.1,0.5,1.1,0.8c0,0.2-0.2,0.5-0.8,0.5c-0.6,0-1.1-0.2-1.3-0.3l-0.3,1c0.3,0.1,0.7,0.3,1.3,0.3
					v0.8h0.9v-0.8c0.9-0.2,1.5-0.8,1.5-1.6c0-0.9-0.6-1.3-1.6-1.6c-0.7-0.2-0.9-0.4-0.9-0.8C-335.9,279.6-335.6,279.4-335,279.4z"/>
			</g>
			<g>
				<path class="st3" d="M-350.7,288.9v-16.2c0-0.6,0.5-1.1,1.1-1.1h28.1c0.6,0,1.1,0.5,1.1,1.1v16.2c0,0.6-0.5,1.1-1.1,1.1h-28.1
					C-350.2,290-350.7,289.5-350.7,288.9z"/>
				<rect x="-348.5" y="273.8" class="st4" width="26" height="14"/>
				<path class="st3" d="M-323.4,276.4c0.1,0.1,0.1,0.2,0.1,0.2v8.4c0,0.1,0,0.2-0.1,0.2c-0.1,0.1-0.2,0.1-0.3,0.1
					c-0.1,0-0.1,0-0.2,0c-0.7,0-1.3,0.6-1.3,1.3c0,0,0,0.1,0,0.1c0,0.1,0,0.2-0.1,0.2c-0.1,0.1-0.1,0.1-0.2,0.1h-20.1
					c-0.1,0-0.2,0-0.2-0.1c-0.1-0.1-0.1-0.2-0.1-0.2c0,0,0-0.1,0-0.1c0-0.7-0.6-1.3-1.3-1.3c-0.1,0-0.1,0-0.2,0
					c-0.1,0-0.2,0-0.3-0.1c-0.1-0.1-0.1-0.2-0.1-0.2v-8.4c0-0.1,0-0.2,0.1-0.2c0.1-0.1,0.2-0.1,0.3-0.1c0.1,0,0.1,0,0.2,0
					c0.7,0,1.3-0.6,1.3-1.3c0,0,0-0.1,0-0.1c0-0.1,0-0.2,0.1-0.2c0.1-0.1,0.1-0.1,0.2-0.1h20.1c0.1,0,0.2,0,0.2,0.1
					c0.1,0.1,0.1,0.2,0.1,0.2c0,0,0,0.1,0,0.1c0,0.7,0.6,1.3,1.3,1.3c0.1,0,0.1,0,0.2,0C-323.6,276.3-323.5,276.3-323.4,276.4z"/>
				<path class="st4" d="M-330.9,280.8c0-2.6-2.1-4.7-4.7-4.7c-2.6,0-4.7,2.1-4.7,4.7c0,2.6,2.1,4.7,4.7,4.7
					C-333,285.5-330.9,283.4-330.9,280.8z"/>
				<path class="st3" d="M-335.3,279.1c0.6,0,1.1,0.2,1.5,0.4l0.3-1c-0.3-0.2-0.9-0.4-1.5-0.4v-0.8h-0.9v0.9c-1,0.2-1.6,0.8-1.6,1.6
					c0,0.8,0.4,1.3,1.5,1.7c0.8,0.3,1.1,0.5,1.1,0.8c0,0.2-0.2,0.5-0.8,0.5c-0.6,0-1.1-0.2-1.3-0.3l-0.3,1c0.3,0.1,0.7,0.3,1.3,0.3
					v0.8h0.9v-0.8c0.9-0.2,1.5-0.8,1.5-1.6c0-0.9-0.6-1.3-1.6-1.6c-0.7-0.2-0.9-0.4-0.9-0.8C-336.2,279.3-335.8,279.1-335.3,279.1z"
					/>
			</g>
			<path class="st5" d="M-327.3,258.8l-4.8,12.4l-5.8-2.2c-1.2-0.5-2.6,0.1-3,1.4l-7.7,20.2l-4.5-1.8l2.9,12.7l10.8-7.3l-4.8-1.9
				l6.9-18l5.8,2.2c1.2,0.5,2.6-0.1,3-1.4l5.6-14.6L-327.3,258.8z"/>
			<path class="st6" d="M-327.6,258.3l-4.7,12.6l-5.8-2.2c-1.2-0.5-2.6,0.1-3,1.4l-7.7,20.2l-4.5-1.8l2.9,12.7l10.8-7.3l-4.8-1.9
				l6.9-18l5.8,2.2c1.2,0.5,2.6-0.1,3-1.4l5.6-14.8L-327.6,258.3z"/>
		</g>
	</g>
</g>
</svg>
