<?xml version="1.0" encoding="utf-8"?>
<!-- Generator: Adobe Illustrator 19.1.0, SVG Export Plug-In . SVG Version: 6.00 Build 0)  -->
<!DOCTYPE svg PUBLIC "-//W3C//DTD SVG 1.1//EN" "http://www.w3.org/Graphics/SVG/1.1/DTD/svg11.dtd">
<svg version="1.1" id="Camada_1" xmlns="http://www.w3.org/2000/svg" xmlns:xlink="http://www.w3.org/1999/xlink" x="0px" y="0px"
	 viewBox="-371 245 72 72" style="enable-background:new -371 245 72 72;" xml:space="preserve">
<style type="text/css">
	.st0{display:none;}
	.st1{fill:#692C90;}
	.st2{opacity:0.2;enable-background:new    ;}
	.st3{fill:#FEC40D;}
	.st4{fill:#FFFFFF;}
</style>
<g id="Layer_2">
	<circle class="st1" cx="-335" cy="281" r="36"/>
	<g>
		<path class="st2" d="M-326.7,274.5c7.1,0,12.8,4.9,12.8,11c0,3.7-2.1,6.9-5.3,8.9l1.8,4.6l-4.4-3.3c-1.5,0.5-3.2,0.9-4.9,0.9
			c-7.1,0-12.8-4.9-12.8-11C-339.5,279.4-333.8,274.5-326.7,274.5z"/>
		<path class="st3" d="M-326.7,273.7c7.1,0,12.8,4.9,12.8,11c0,3.7-2.1,6.9-5.3,8.9l1.8,4.6l-4.4-3.3c-1.5,0.5-3.2,0.9-4.9,0.9
			c-7.1,0-12.8-4.9-12.8-11C-339.5,278.7-333.8,273.7-326.7,273.7z"/>
		<path class="st2" d="M-339.4,264c-9.1,0-16.5,6.4-16.5,14.2c0,4.7,2.7,8.9,6.8,11.5l-2.3,5.9l5.7-4.2c2,0.7,4.1,1.1,6.4,1.1
			c9.1,0,16.5-6.4,16.5-14.2C-322.9,270.4-330.3,264-339.4,264z"/>
		<path class="st4" d="M-339.6,263c-9.1,0-16.5,6.4-16.5,14.2c0,4.7,2.7,8.9,6.8,11.5l-2.3,5.9l5.7-4.2c2,0.7,4.1,1.1,6.4,1.1
			c9.1,0,16.5-6.4,16.5-14.2C-323.1,269.4-330.5,263-339.6,263z"/>
		<g>
			<path class="st3" d="M-346.8,279.7c1.2,0,2.2-1,2.2-2.2c0-1.2-1-2.2-2.2-2.2c-1.2,0-2.2,1-2.2,2.2
				C-349.1,278.7-348.1,279.7-346.8,279.7z"/>
			<path class="st3" d="M-339.6,279.7c1.2,0,2.2-1,2.2-2.2c0-1.2-1-2.2-2.2-2.2c-1.2,0-2.2,1-2.2,2.2
				C-341.9,278.7-340.9,279.7-339.6,279.7z"/>
			<path class="st3" d="M-332.4,279.7c1.2,0,2.2-1,2.2-2.2c0-1.2-1-2.2-2.2-2.2c-1.2,0-2.2,1-2.2,2.2
				C-334.6,278.7-333.6,279.7-332.4,279.7z"/>
		</g>
	</g>
</g>
</svg>
