<?xml version="1.0" encoding="utf-8"?>
<!-- Generator: Adobe Illustrator 19.1.0, SVG Export Plug-In . SVG Version: 6.00 Build 0)  -->
<!DOCTYPE svg PUBLIC "-//W3C//DTD SVG 1.1//EN" "http://www.w3.org/Graphics/SVG/1.1/DTD/svg11.dtd">
<svg version="1.1" id="Camada_1" xmlns="http://www.w3.org/2000/svg" xmlns:xlink="http://www.w3.org/1999/xlink" x="0px" y="0px"
	 viewBox="-371 245 72 72" style="enable-background:new -371 245 72 72;" xml:space="preserve">
<style type="text/css">
	.st0{display:none;}
	.st1{fill:#F48FB1;}
	.st2{opacity:0.2;}
	.st3{fill:#DC3126;}
	.st4{fill:#EEEEEE;}
	.st5{fill:#E0E0E0;}
</style>
<g id="Layer_2">
	<g>
		<circle class="st1" cx="-335" cy="281" r="36"/>
		<g class="st2">
			<path d="M-324.6,264c-3.9,0-7.4,1.6-9.9,4.3c-2.5-2.6-6-4.3-9.9-4.3c-7.4,0-13.5,5.9-13.5,13.3c0,2,0.4,3.9,1,5.7
				c0,0,0.6,1.6,1.1,2.5c5.7,11.5,21.3,19,21.3,19s15.6-7.5,21.3-19c0,0,0.7-1.5,1.1-2.5c0.6-1.8,1-3.7,1-5.7
				C-311.2,269.9-317.2,264-324.6,264z"/>
		</g>
		<g>
			<path class="st3" d="M-325.1,263.5c-3.9,0-7.4,1.6-9.9,4.3c-2.5-2.6-6-4.3-9.9-4.3c-7.5,0-13.5,6-13.5,13.3c0,2,0.4,3.9,1,5.7
				c0,0,0.6,1.6,1.1,2.5c5.7,11.5,21.4,19,21.4,19s15.7-7.5,21.4-19c0,0,0.7-1.5,1.1-2.5c0.6-1.8,1-3.7,1-5.7
				C-311.6,269.5-317.6,263.5-325.1,263.5z"/>
		</g>
		<g class="st2">
			<path d="M-339.6,288.8l0.4,1.2l2.6-0.8l-0.4-1.2c0.7-0.3,1.3-0.8,1.8-1.3l-1.4-1.4c-1.6,1.6-4.2,2.1-6.4,0.9
				c-2.6-1.4-3.6-4.7-2.2-7.3l0,0c0.3-0.5,0.6-0.9,0.9-1.3l-1.4-1.4c-0.2,0.2-0.4,0.4-0.5,0.6l-1.1-0.6l-1.3,2.4l1.1,0.6
				c-0.3,1-0.4,2-0.3,3l-1.2,0.4l0.8,2.6l1.2-0.4c0.5,0.9,1.1,1.7,1.9,2.3l-0.6,1.1l2.4,1.3l0.6-1.1
				C-341.6,288.9-340.6,288.9-339.6,288.8z M-335.2,286.7c0.2-0.2,0.4-0.4,0.5-0.6l1.1,0.6l1.3-2.4l-1.1-0.6c0.3-1,0.4-2,0.3-3
				l1.2-0.4l-0.8-2.6l-1.2,0.4c-0.5-0.9-1.1-1.7-1.9-2.3l0.6-1.1l-2.4-1.3l-0.6,1.1c-1-0.3-2-0.4-3-0.3l-0.4-1.2l-2.6,0.8l0.4,1.2
				c-0.7,0.3-1.3,0.8-1.8,1.3l1.4,1.4c1.6-1.6,4.2-2.1,6.4-0.9c2.6,1.4,3.6,4.7,2.2,7.3c-0.3,0.5-0.6,0.9-0.9,1.3L-335.2,286.7z"/>
			<path d="M-326.3,291.1l0.2,0.9l1.8-0.5l-0.2-0.9c0.5-0.2,0.9-0.5,1.3-0.9l-0.9-1c-1.2,1.1-3,1.3-4.5,0.4
				c-1.8-1.1-2.4-3.4-1.3-5.2l0,0c0.2-0.3,0.4-0.6,0.7-0.9l-0.9-1c-0.1,0.1-0.3,0.3-0.4,0.4l-0.8-0.5l-1,1.6l0.8,0.5
				c-0.3,0.7-0.4,1.4-0.3,2.1l-0.9,0.2l0.5,1.8l0.9-0.2c0.3,0.6,0.7,1.2,1.3,1.7l-0.5,0.8l1.6,1l0.5-0.8
				C-327.7,291.1-327,291.2-326.3,291.1z M-323.2,289.8c0.1-0.1,0.3-0.3,0.4-0.4l0.8,0.5l1-1.6l-0.8-0.5c0.3-0.7,0.4-1.4,0.3-2.1
				l0.9-0.2l-0.4-1.8l-0.9,0.2c-0.3-0.6-0.7-1.2-1.3-1.7l0.5-0.8l-1.6-1l-0.5,0.8c-0.7-0.3-1.4-0.4-2.1-0.3l-0.2-0.9l-1.8,0.5
				l0.2,0.9c-0.5,0.2-0.9,0.5-1.3,0.9l0.9,1c1.2-1.1,3-1.3,4.5-0.4c1.8,1.1,2.4,3.4,1.3,5.2c-0.2,0.3-0.4,0.6-0.7,0.9L-323.2,289.8z
				"/>
		</g>
		<g>
			<path class="st4" d="M-339.7,288.5l0.4,1.2l2.6-0.8l-0.4-1.2c0.7-0.3,1.3-0.8,1.8-1.3l-1.4-1.4c-1.6,1.6-4.2,2.1-6.4,0.9
				c-2.6-1.4-3.6-4.7-2.2-7.3l0,0c0.3-0.5,0.6-0.9,0.9-1.3l-1.4-1.4c-0.2,0.2-0.4,0.4-0.5,0.6l-1.1-0.6l-1.3,2.4l1.1,0.6
				c-0.3,1-0.4,2-0.3,3l-1.2,0.4l0.8,2.6l1.2-0.4c0.5,0.9,1.1,1.7,1.9,2.3l-0.6,1.1l2.4,1.3l0.6-1.1
				C-341.8,288.5-340.7,288.6-339.7,288.5z M-335.4,286.4c0.2-0.2,0.4-0.4,0.5-0.6l1.1,0.6l1.3-2.4l-1.1-0.6c0.3-1,0.4-2,0.3-3
				l1.2-0.4l-0.8-2.6l-1.2,0.4c-0.5-0.9-1.1-1.7-1.9-2.3l0.6-1.1l-2.4-1.3l-0.6,1.1c-1-0.3-2-0.4-3-0.3l-0.4-1.2l-2.6,0.8l0.4,1.2
				c-0.7,0.3-1.3,0.8-1.8,1.3l1.4,1.4c1.6-1.6,4.2-2.1,6.4-0.9c2.6,1.4,3.6,4.7,2.2,7.3c-0.3,0.5-0.6,0.9-0.9,1.3L-335.4,286.4z"/>
			<path class="st5" d="M-326.4,290.8l0.2,0.9l1.8-0.5l-0.2-0.9c0.5-0.2,0.9-0.5,1.3-0.9l-0.9-1c-1.2,1.1-3,1.3-4.5,0.4
				c-1.8-1.1-2.4-3.4-1.3-5.2l0,0c0.2-0.3,0.4-0.6,0.7-0.9l-0.9-1c-0.1,0.1-0.3,0.3-0.4,0.4l-0.8-0.5l-1,1.6l0.8,0.5
				c-0.3,0.7-0.4,1.4-0.3,2.1l-0.9,0.2l0.5,1.8l0.9-0.2c0.3,0.6,0.7,1.2,1.3,1.7l-0.5,0.8l1.6,1l0.5-0.8
				C-327.9,290.7-327.1,290.8-326.4,290.8z M-323.3,289.5c0.1-0.1,0.3-0.3,0.4-0.4l0.8,0.5l1-1.6l-0.8-0.5c0.3-0.7,0.4-1.4,0.3-2.1
				l0.9-0.2l-0.4-1.8l-0.9,0.2c-0.3-0.6-0.7-1.2-1.3-1.7l0.5-0.8l-1.6-1l-0.5,0.8c-0.7-0.3-1.4-0.4-2.1-0.3l-0.2-0.9l-1.8,0.5
				l0.2,0.9c-0.5,0.2-0.9,0.5-1.3,0.9l0.9,1c1.2-1.1,3-1.3,4.5-0.4c1.8,1.1,2.4,3.4,1.3,5.2c-0.2,0.3-0.4,0.6-0.7,0.9L-323.3,289.5z
				"/>
		</g>
	</g>
</g>
</svg>
