<?xml version="1.0" encoding="utf-8"?>
<!-- Generator: Adobe Illustrator 19.1.0, SVG Export Plug-In . SVG Version: 6.00 Build 0)  -->
<!DOCTYPE svg PUBLIC "-//W3C//DTD SVG 1.1//EN" "http://www.w3.org/Graphics/SVG/1.1/DTD/svg11.dtd">
<svg version="1.1" id="Camada_1" xmlns="http://www.w3.org/2000/svg" xmlns:xlink="http://www.w3.org/1999/xlink" x="0px" y="0px"
	 viewBox="-371 245 72 72" style="enable-background:new -371 245 72 72;" xml:space="preserve">
<style type="text/css">
	.st0{display:none;}
	.st1{fill:#04897B;}
	.st2{opacity:0.2;}
	.st3{fill:#E0E0E0;}
	.st4{fill:#FAFBFB;}
	.st5{fill:#EEEEEE;}
	.st6{fill:#DC3126;}
</style>
<g id="Layer_2">
	<g>
		<circle class="st1" cx="-335" cy="281" r="36"/>
		<g class="st2">
			<path d="M-319.2,297.3c0,1.8-1.5,3.3-3.3,3.3h-23.7c-1.8,0-3.3-1.5-3.3-3.3V276c0-1.8,1.5-3.3,3.3-3.3h23.7
				c1.8,0,3.3,1.5,3.3,3.3V297.3z"/>
			<path d="M-349.6,297.8c0.3,1.6,1.6,2.8,3.3,2.8h23.7c1.7,0,3.1-1.2,3.3-2.8H-349.6z"/>
			<g>
				<g>
					<path d="M-340.7,272.7v-7.3c0-2.5,2.1-4.6,4.6-4.6h3c2.5,0,4.6,2.1,4.6,4.6v7.3h3.3v-7.3c0-4.4-3.6-7.9-7.9-7.9h-3
						c-4.4,0-7.9,3.6-7.9,7.9v7.3C-344.1,272.7-340.7,272.7-340.7,272.7z"/>
				</g>
			</g>
			<g>
				<g>
					<g>
						<path d="M-340.7,272.7v-7.3c0-2.5,2.1-4.6,4.6-4.6h3c2.5,0,4.6,2.1,4.6,4.6v7.3h1.3v-7.3c0-3.2-2.6-5.8-5.9-5.9h-3
							c-2.9,0-5.2,2.1-5.8,4.8v8.4H-340.7z"/>
					</g>
				</g>
			</g>
		</g>
		<g>
			<path class="st3" d="M-319.8,296.8c0,1.8-1.5,3.3-3.3,3.3h-23.7c-1.8,0-3.3-1.5-3.3-3.3v-21.2c0-1.8,1.5-3.3,3.3-3.3h23.7
				c1.8,0,3.3,1.5,3.3,3.3V296.8z"/>
			<path class="st4" d="M-350.2,297.3c0.3,1.6,1.6,2.8,3.3,2.8h23.7c1.7,0,3.1-1.2,3.3-2.8H-350.2z"/>
			<g>
				<g>
					<path class="st4" d="M-341.3,272.2v-7.3c0-2.5,2.1-4.6,4.6-4.6h3c2.5,0,4.6,2.1,4.6,4.6v7.3h3.3v-7.3c0-4.4-3.6-7.9-7.9-7.9h-3
						c-4.4,0-7.9,3.6-7.9,7.9v7.3L-341.3,272.2L-341.3,272.2z"/>
				</g>
			</g>
			<g>
				<g>
					<g>
						<path class="st5" d="M-341.3,272.2v-7.3c0-2.5,2.1-4.6,4.6-4.6h3c2.5,0,4.6,2.1,4.6,4.6v7.3h1.3v-7.3c0-3.2-2.6-5.8-5.9-5.9
							h-3c-2.9,0-5.2,2.1-5.8,4.8v8.4H-341.3z"/>
					</g>
				</g>
			</g>
		</g>
		<g>
			<path class="st6" d="M-331.5,277.9c-1.4,0-2.6,0.6-3.5,1.5c-0.9-0.9-2.1-1.5-3.5-1.5c-2.6,0-4.8,2.1-4.8,4.7c0,0.7,0.1,1.4,0.3,2
				c0,0,0.2,0.6,0.4,0.9c2,4.1,7.6,6.7,7.6,6.7s5.6-2.7,7.6-6.7c0,0,0.3-0.5,0.4-0.9c0.2-0.6,0.3-1.3,0.3-2
				C-326.7,280-328.8,277.9-331.5,277.9z"/>
		</g>
	</g>
</g>
</svg>
