<?xml version="1.0" encoding="utf-8"?>
<!-- Generator: Adobe Illustrator 19.1.0, SVG Export Plug-In . SVG Version: 6.00 Build 0)  -->
<!DOCTYPE svg PUBLIC "-//W3C//DTD SVG 1.1//EN" "http://www.w3.org/Graphics/SVG/1.1/DTD/svg11.dtd">
<svg version="1.1" id="Camada_1" xmlns="http://www.w3.org/2000/svg" xmlns:xlink="http://www.w3.org/1999/xlink" x="0px" y="0px"
	 viewBox="-371 245 72 72" style="enable-background:new -371 245 72 72;" xml:space="preserve">
<style type="text/css">
	.st0{display:none;}
	.st1{fill:#FAF291;}
	.st2{opacity:0.2;enable-background:new    ;}
	.st3{fill:#0297A7;}
	.st4{fill:#36C2D6;}
	.st5{fill:#DC3126;}
</style>
<g id="Layer_2">
	<g>
		<circle class="st1" cx="-335" cy="281" r="36"/>
		<g>
			<g>
				<path class="st2" d="M-321.9,260.8h-12.4h0h-12.4c0,0-1.9,3.3-4.5,3.6c-9.2,31.8,16.8,39.7,16.9,39.7h0c0,0,26-7.9,16.9-39.7
					C-320,264.1-321.9,260.8-321.9,260.8z"/>
				<path class="st3" d="M-322.5,259.8H-335h0h-12.5c0,0-1.9,3.4-4.5,3.7c-9.3,32.2,17.1,40.2,17.1,40.2h0c0,0,26.4-8,17.1-40.2
					C-320.6,263.2-322.5,259.8-322.5,259.8z"/>
				<path class="st4" d="M-323.8,261.9h-11.4h0h-11.4c0,0-1.7,3-4.1,3.3c-8.5,29.1,15.5,36.3,15.5,36.3h0c0,0,24-7.2,15.5-36.3
					C-322.1,264.9-323.8,261.9-323.8,261.9z"/>
			</g>
		</g>
		<g>
			<path class="st5" d="M-330.2,270.7c-2,0-3.8,0.8-5,2.2c-1.2-1.3-3-2.2-5-2.2c-3.8,0-6.8,3-6.8,6.8c0,1,0.2,2,0.5,2.9
				c0,0,0.3,0.8,0.5,1.3c2.9,5.8,10.8,9.6,10.8,9.6s7.9-3.8,10.8-9.6c0,0,0.4-0.8,0.5-1.3c0.3-0.9,0.5-1.9,0.5-2.9
				C-323.3,273.8-326.4,270.7-330.2,270.7z"/>
		</g>
	</g>
</g>
</svg>
