<?xml version="1.0" encoding="utf-8"?>
<!-- Generator: Adobe Illustrator 18.1.1, SVG Export Plug-In . SVG Version: 6.00 Build 0)  -->
<!DOCTYPE svg PUBLIC "-//W3C//DTD SVG 1.1//EN" "http://www.w3.org/Graphics/SVG/1.1/DTD/svg11.dtd">
<svg version="1.1" id="Camada_1" xmlns="http://www.w3.org/2000/svg" xmlns:xlink="http://www.w3.org/1999/xlink" x="0px" y="0px"
	 viewBox="0 0 226 24" enable-background="new 0 0 226 24" xml:space="preserve">
<g>
	<g>
		<path fill="#308DAA" d="M0.1,20C-0.9,17.9,8.5,4.3,18.9,0.2c4.3-1.7,10.2,13.6,13.5,13.8c1.7,0.1,7.7-7.3,11.3-7.7
			C47.4,5.8,54,15.8,55.5,17c1.5,1.2,0.6,5.5-4.2,6.7c-1.6,0.4-4.9-8.4-8.2-8.1c-3.2,0.3-9.8,8.4-14,7.5c-4.2-1-7.3-12.4-11.6-11.2
			S9.6,22.1,6.9,22.8C4.2,23.4,0.9,21.9,0.1,20z"/>
		<linearGradient id="SVGID_1_" gradientUnits="userSpaceOnUse" x1="-0.7303" y1="11.8896" x2="55.4476" y2="11.8896">
			<stop  offset="0.183" style="stop-color:#FFFFFF"/>
			<stop  offset="0.2094" style="stop-color:#FBFBFB"/>
			<stop  offset="0.2373" style="stop-color:#EEEEEE"/>
			<stop  offset="0.2659" style="stop-color:#D9D9D9"/>
			<stop  offset="0.2951" style="stop-color:#BBBBBB"/>
			<stop  offset="0.3247" style="stop-color:#959595"/>
			<stop  offset="0.3546" style="stop-color:#666666"/>
			<stop  offset="0.3842" style="stop-color:#303030"/>
			<stop  offset="0.4072" style="stop-color:#000000"/>
			<stop  offset="0.4569" style="stop-color:#3D3D3D"/>
			<stop  offset="0.5108" style="stop-color:#777777"/>
			<stop  offset="0.5629" style="stop-color:#A8A8A8"/>
			<stop  offset="0.612" style="stop-color:#CECECE"/>
			<stop  offset="0.6571" style="stop-color:#E9E9E9"/>
			<stop  offset="0.6969" style="stop-color:#F9F9F9"/>
			<stop  offset="0.7273" style="stop-color:#FFFFFF"/>
			<stop  offset="1" style="stop-color:#020202"/>
		</linearGradient>
		<path opacity="0.4" fill="url(#SVGID_1_)" d="M0.1,20C-0.9,17.9,8.5,4.3,18.9,0.2c4.3-1.7,10.2,13.6,13.5,13.8
			c1.7,0.1,7.7-7.3,11.3-7.7C47.4,5.8,54,15.8,55.5,17s0.6,5.5-4.2,6.7c-1.6,0.4-4.9-8.4-8.2-8.1c-3.2,0.3-9.8,8.4-14,7.5
			c-4.2-1-7.3-12.4-11.6-11.2S9.6,22.1,6.9,22.8C4.2,23.4,0.9,21.9,0.1,20z"/>
		<path fill="#54BED6" d="M5,11.1c0,0,2.3-3,5.2-3s7.8,0.7,11.3,5.8s5.4,8.5,7.7,9.2c2.4,0.7,7.9-3.1,11.5-6.4c0,0-1.6,0.9-4.2,0
			c-4.6-1.6-4.9-2.8-8.3-7.2c-1.4-1.9-3-4.8-5.3-7.6c-2-2.3-3.2-2.6-7-0.4C11.1,4.3,9.6,5.7,5,11.1z"/>
		<path fill="#54BED6" d="M35.9,11.6c0,0,1.8-1.6,2.8-1.7c1-0.1,2.5,0,6.8,6.8c1.7,2.7,5.1,7.2,5.7,7.2c0.6,0,2.8-0.7,3.8-2.1
			c1-1.4,1.4-1.9,1.2-3.6c-0.2-1.7-7.5-9.1-8.5-9.9c-1-0.8-2.6-3-5.3-1.7C40.2,7.6,35.9,11.6,35.9,11.6z"/>
	</g>
	<path fill="#969696" d="M122.8,5.7h-5.4h-0.1c-4.1,0-7.4,3.3-7.4,7.4v0v10.3c0,0.3,0.2,0.5,0.5,0.5h6.5c0.3,0,0.5-0.2,0.5-0.5v-7.6
		c0-1.5,1.2-2.7,2.7-2.7h0c1.5,0,2.7,1.2,2.7,2.7v7.6c0,0.3,0.2,0.5,0.5,0.5h6.4c0.3,0,0.5-0.2,0.5-0.5V13.1v0
		C130.3,9,126.9,5.7,122.8,5.7L122.8,5.7z"/>
	<path fill="#969696" d="M92.6,5.7h-5.4h-0.1C83,5.7,79.6,9,79.6,13v0v10.3c0,0.3,0.2,0.5,0.5,0.5h6.5c0.3,0,0.5-0.2,0.5-0.5v-7.6
		c0-1.5,1.2-2.7,2.7-2.7h0c1.5,0,2.7,1.2,2.7,2.7v7.6c0,0.3,0.2,0.5,0.5,0.5h6.4c0.3,0,0.5-0.2,0.5-0.5V13.1v0
		C100,9,96.7,5.7,92.6,5.7L92.6,5.7z"/>
	<path fill="#54BED6" d="M192.6,5.6h-5.4h-0.1c-4.1,0-7.4,3.3-7.4,7.4v0v10.3c0,0.3,0.2,0.5,0.5,0.5h6.5c0.3,0,0.5-0.2,0.5-0.5v-7.6
		c0-1.5,1.2-2.7,2.7-2.7h0c1.5,0,2.7,1.2,2.7,2.7v7.6c0,0.3,0.2,0.5,0.5,0.5h6.4c0.3,0,0.5-0.2,0.5-0.5V13v0
		C200.1,8.9,196.7,5.6,192.6,5.6L192.6,5.6z"/>
	<path fill="#969696" d="M79.7,5.7h-5.4h-0.1c-4.1,0-7.4,3.3-7.4,7.4v0v10.3c0,0.3,0.2,0.5,0.5,0.5h6.5c0.3,0,0.5-0.2,0.5-0.5v-7.6
		c0-1.5,1.2-2.7,2.7-2.7l0,0c1.5,0,2.7,1.2,2.7,2.7v7.6c0,0.3,0.2,0.5,0.5,0.5h6.4c0.3,0,0.5-0.2,0.5-0.5V13.1v0
		C87.2,9,83.8,5.7,79.7,5.7L79.7,5.7z"/>
	<path fill="#969696" d="M131.9,5.7h6.5c0.3,0,0.5,0.2,0.5,0.5v17.1c0,0.3-0.2,0.5-0.5,0.5h-6.5c-0.3,0-0.5-0.2-0.5-0.5V6.2
		C131.4,5.9,131.7,5.7,131.9,5.7z"/>
	<path fill="#969696" d="M101.9,5.7h6.5c0.3,0,0.5,0.2,0.5,0.5v17.1c0,0.3-0.2,0.5-0.5,0.5h-6.5c-0.3,0-0.5-0.2-0.5-0.5V6.2
		C101.4,5.9,101.6,5.7,101.9,5.7z"/>
	<path fill="#54BED6" d="M150.5,5.4c1.9,0,3.8,0.4,5,0.9c0.2,0.1,0.3,0.3,0.3,0.5v5.5c0,0.4-0.4,0.6-0.7,0.5
		c-1.1-0.5-2.4-0.8-3.8-0.8c-2.6,0-3.9,1.2-3.9,2.9c0,1.7,1.4,2.9,3.9,2.9c1.4,0,2.8-0.3,3.9-0.8c0.3-0.1,0.7,0.1,0.7,0.5v5.2
		c0,0.2-0.1,0.4-0.3,0.5c-1.2,0.6-3.2,1-5.2,1c-6.1,0-10.5-3.9-10.5-9.3C139.9,9.4,144.4,5.4,150.5,5.4z"/>
	<path fill="#54BED6" d="M157.5,5.7h6.5c0.3,0,0.5,0.2,0.5,0.5v10.6c0,0.3,0.2,0.5,0.5,0.5h4.6c0.3,0,0.5,0.2,0.5,0.5v5.4
		c0,0.3-0.2,0.5-0.5,0.5h-12.1c-0.3,0-0.5-0.2-0.5-0.5v-17C157,5.9,157.2,5.7,157.5,5.7z"/>
	<path fill="#54BED6" d="M171.6,6h6.5c0.3,0,0.5,0.2,0.5,0.5v17c0,0.3-0.2,0.5-0.5,0.5h-6.5c-0.3,0-0.5-0.2-0.5-0.5v-17
		C171.1,6.2,171.3,6,171.6,6z"/>
	<path fill="#54BED6" d="M201.6,5.7h6.5c0.3,0,0.5,0.2,0.5,0.5v17c0,0.3-0.2,0.5-0.5,0.5h-6.5c-0.3,0-0.5-0.2-0.5-0.5v-17
		C201.1,5.9,201.3,5.7,201.6,5.7z"/>
	<path fill="#54BED6" d="M220.1,5.4c1.9,0,3.8,0.4,5,0.9c0.2,0.1,0.3,0.3,0.3,0.5v5.5c0,0.4-0.4,0.6-0.7,0.5
		c-1.1-0.5-2.4-0.8-3.8-0.8c-2.6,0-3.9,1.2-3.9,2.9c0,1.7,1.4,2.9,3.9,2.9c1.4,0,2.8-0.3,3.9-0.8c0.3-0.1,0.7,0.1,0.7,0.5v5.2
		c0,0.2-0.1,0.4-0.3,0.5c-1.2,0.6-3.2,1-5.2,1c-6.1,0-10.5-3.9-10.5-9.3C209.5,9.4,213.9,5.4,220.1,5.4z"/>
</g>
</svg>
