<?xml version="1.0" encoding="utf-8"?>
<!-- Generator: Adobe Illustrator 18.1.1, SVG Export Plug-In . SVG Version: 6.00 Build 0)  -->
<!DOCTYPE svg PUBLIC "-//W3C//DTD SVG 1.1//EN" "http://www.w3.org/Graphics/SVG/1.1/DTD/svg11.dtd">
<svg version="1.1" id="Camada_1" xmlns="http://www.w3.org/2000/svg" xmlns:xlink="http://www.w3.org/1999/xlink" x="0px" y="0px"
	 viewBox="0 0 160 98" enable-background="new 0 0 160 98" xml:space="preserve">
<path fill="#308DAA" d="M0.7,56.9c-2.6-6,23.8-44.6,53.3-56.5c12.2-4.9,28.8,38.7,38.3,39.2c4.8,0.3,21.7-20.8,32-22
	s29.1,27.4,33.3,30.8c4.3,3.3,1.6,15.6-11.9,19.2c-4.6,1.2-14-24-23.1-23.1c-9.1,0.9-27.7,24-39.5,21.3s-20.7-35.4-32.8-32
	S27.6,63.1,20,64.9C12.4,66.7,3.1,62.4,0.7,56.9z"/>
<linearGradient id="SVGID_1_" gradientUnits="userSpaceOnUse" x1="-1.5824" y1="33.8996" x2="157.4477" y2="33.8996">
	<stop  offset="0.183" style="stop-color:#FFFFFF"/>
	<stop  offset="0.2094" style="stop-color:#FBFBFB"/>
	<stop  offset="0.2373" style="stop-color:#EEEEEE"/>
	<stop  offset="0.2659" style="stop-color:#D9D9D9"/>
	<stop  offset="0.2951" style="stop-color:#BBBBBB"/>
	<stop  offset="0.3247" style="stop-color:#959595"/>
	<stop  offset="0.3546" style="stop-color:#666666"/>
	<stop  offset="0.3842" style="stop-color:#303030"/>
	<stop  offset="0.4072" style="stop-color:#000000"/>
	<stop  offset="0.4569" style="stop-color:#3D3D3D"/>
	<stop  offset="0.5108" style="stop-color:#777777"/>
	<stop  offset="0.5629" style="stop-color:#A8A8A8"/>
	<stop  offset="0.612" style="stop-color:#CECECE"/>
	<stop  offset="0.6571" style="stop-color:#E9E9E9"/>
	<stop  offset="0.6969" style="stop-color:#F9F9F9"/>
	<stop  offset="0.7273" style="stop-color:#FFFFFF"/>
	<stop  offset="1" style="stop-color:#020202"/>
</linearGradient>
<path opacity="0.4" fill="url(#SVGID_1_)" d="M0.7,56.9C-2,50.9,24.4,12.3,54,0.5c12.2-4.9,28.8,38.7,38.3,39.2
	c4.8,0.3,21.7-20.8,32-22s29.1,27.4,33.3,30.8c4.3,3.3,1.6,15.6-11.9,19.2c-4.6,1.2-14-24-23.1-23.1c-9.1,0.9-27.7,24-39.5,21.3
	s-20.7-35.4-32.8-32S27.5,63.1,19.9,64.9C12.3,66.7,3,62.4,0.7,56.9z"/>
<linearGradient id="SVGID_2_" gradientUnits="userSpaceOnUse" x1="-1.5392" y1="33.8009" x2="157.491" y2="33.8009">
	<stop  offset="0.183" style="stop-color:#308DAA"/>
	<stop  offset="0.283" style="stop-color:#2F8AA6"/>
	<stop  offset="0.3886" style="stop-color:#2B7F99"/>
	<stop  offset="0.4072" style="stop-color:#2A7D96"/>
	<stop  offset="0.5794" style="stop-color:#2E88A4"/>
	<stop  offset="0.7273" style="stop-color:#308DAA"/>
	<stop  offset="1" style="stop-color:#2A7D96"/>
</linearGradient>
<path fill="url(#SVGID_2_)" d="M0.7,56.8c-2.6-6,23.8-44.6,53.3-56.5C66.2-4.5,82.9,39,92.3,39.6c4.8,0.3,21.7-20.8,32-22
	s29.1,27.4,33.3,30.8s1.6,15.6-11.9,19.2c-4.6,1.2-14-24-23.1-23.1c-9.1,0.9-27.7,24-39.5,21.3c-11.9-2.7-20.7-35.4-32.8-32
	C38.2,37.1,27.6,63,20,64.8C12.4,66.6,3.1,62.3,0.7,56.8z"/>
<path fill="#54BED6" d="M14.7,31.5c0,0,6.4-8.4,14.6-8.4s22.1,2.1,32,16.6s15.2,24.3,21.9,26.2s22.5-8.7,32.7-18.2
	c0,0-4.5,2.7-12,0.1c-13.1-4.6-14-8-23.4-20.5c-4-5.3-8.5-13.7-15.1-21.7c-5.5-6.7-9-7.4-19.8-1.1C32,12.4,27.8,16.2,14.7,31.5z"/>
<path fill="#54BED6" d="M102,33c0,0,5.1-4.6,7.9-4.9c2.7-0.3,7.1,0.1,19.3,19.5c4.8,7.6,14.4,20.5,16.3,20.4c1.8,0,7.9-2.1,10.8-6.1
	s4-5.5,3.3-10.3s-21.1-25.9-24.1-28.3s-7.3-8.4-15-4.7C114.4,21.6,102,33,102,33z"/>
<path fill="#969696" d="M56.6,79.4h-5.5h-0.1c-4.1,0-7.5,3.3-7.5,7.5v0v10.4c0,0.3,0.2,0.5,0.5,0.5h6.5c0.3,0,0.5-0.2,0.5-0.5v-7.7
	c0-1.5,1.2-2.7,2.7-2.7h0c1.5,0,2.7,1.2,2.7,2.7v7.7c0,0.3,0.2,0.5,0.5,0.5h6.4c0.3,0,0.5-0.2,0.5-0.5V86.9v0
	C64.1,82.8,60.7,79.4,56.6,79.4L56.6,79.4z"/>
<path fill="#969696" d="M26.2,79.4h-5.5h-0.1c-4.1,0-7.5,3.3-7.5,7.5v0v10.4c0,0.3,0.2,0.5,0.5,0.5h6.5c0.3,0,0.5-0.2,0.5-0.5v-7.7
	c0-1.5,1.2-2.7,2.7-2.7h0c1.5,0,2.7,1.2,2.7,2.7v7.7c0,0.3,0.2,0.5,0.5,0.5h6.4c0.3,0,0.5-0.2,0.5-0.5V86.9v0
	C33.7,82.8,30.3,79.4,26.2,79.4L26.2,79.4z"/>
<path fill="#54BED6" d="M126.7,79.4h-5.5h-0.1c-4.1,0-7.5,3.3-7.5,7.5v0v10.4c0,0.3,0.2,0.5,0.5,0.5h6.5c0.3,0,0.5-0.2,0.5-0.5v-7.7
	c0-1.5,1.2-2.7,2.7-2.7h0c1.5,0,2.7,1.2,2.7,2.7v7.7c0,0.3,0.2,0.5,0.5,0.5h6.4c0.3,0,0.5-0.2,0.5-0.5V86.9v0
	C134.1,82.7,130.8,79.4,126.7,79.4L126.7,79.4z"/>
<path fill="#969696" d="M13.3,79.4H7.8H7.8c-4.1,0-7.5,3.3-7.5,7.5v0v10.4c0,0.3,0.2,0.5,0.5,0.5h6.5c0.3,0,0.5-0.2,0.5-0.5v-7.7
	c0-1.5,1.2-2.7,2.7-2.7h0c1.5,0,2.7,1.2,2.7,2.7v7.7c0,0.3,0.2,0.5,0.5,0.5h6.4c0.3,0,0.5-0.2,0.5-0.5V86.9v0
	C20.8,82.8,17.4,79.4,13.3,79.4L13.3,79.4z"/>
<path fill="#969696" d="M65.7,79.4h6.5c0.3,0,0.5,0.2,0.5,0.5v17.3c0,0.3-0.2,0.5-0.5,0.5h-6.5c-0.3,0-0.5-0.2-0.5-0.5V80
	C65.2,79.7,65.4,79.4,65.7,79.4z"/>
<path fill="#969696" d="M35.6,79.4h6.5c0.3,0,0.5,0.2,0.5,0.5v17.3c0,0.3-0.2,0.5-0.5,0.5h-6.5c-0.3,0-0.5-0.2-0.5-0.5V80
	C35.1,79.7,35.3,79.4,35.6,79.4z"/>
<path fill="#54BED6" d="M84.4,79.2c1.9,0,3.9,0.4,5.1,0.9c0.2,0.1,0.3,0.3,0.3,0.5v5.6c0,0.4-0.4,0.6-0.7,0.5
	c-1.1-0.5-2.4-0.8-3.8-0.8c-2.6,0-4,1.2-4,2.9c0,1.7,1.4,2.9,4,2.9c1.4,0,2.8-0.3,3.9-0.8c0.3-0.2,0.7,0.1,0.7,0.5v5.3
	c0,0.2-0.1,0.4-0.3,0.5c-1.2,0.6-3.2,1-5.2,1c-6.1,0-10.6-4-10.6-9.4C73.8,83.2,78.2,79.2,84.4,79.2z"/>
<path fill="#54BED6" d="M91.4,79.5h6.5c0.3,0,0.5,0.2,0.5,0.5v10.7c0,0.3,0.2,0.5,0.5,0.5h4.6c0.3,0,0.5,0.2,0.5,0.5v5.5
	c0,0.3-0.2,0.5-0.5,0.5H91.4c-0.3,0-0.5-0.2-0.5-0.5V80C90.9,79.7,91.1,79.5,91.4,79.5z"/>
<path fill="#54BED6" d="M105.6,79.8h6.5c0.3,0,0.5,0.2,0.5,0.5v17.2c0,0.3-0.2,0.5-0.5,0.5h-6.5c-0.3,0-0.5-0.2-0.5-0.5V80.3
	C105,80,105.3,79.8,105.6,79.8z"/>
<path fill="#54BED6" d="M135.7,79.5h6.5c0.3,0,0.5,0.2,0.5,0.5v17.2c0,0.3-0.2,0.5-0.5,0.5h-6.5c-0.3,0-0.5-0.2-0.5-0.5V80
	C135.2,79.7,135.4,79.5,135.7,79.5z"/>
<path fill="#54BED6" d="M154.3,79.2c1.9,0,3.9,0.4,5.1,0.9c0.2,0.1,0.3,0.3,0.3,0.5v5.6c0,0.4-0.4,0.6-0.7,0.5
	c-1.1-0.5-2.4-0.8-3.8-0.8c-2.6,0-4,1.2-4,2.9c0,1.7,1.4,2.9,4,2.9c1.4,0,2.8-0.3,3.9-0.8c0.3-0.2,0.7,0.1,0.7,0.5v5.3
	c0,0.2-0.1,0.4-0.3,0.5c-1.2,0.6-3.2,1-5.2,1c-6.1,0-10.6-4-10.6-9.4C143.7,83.2,148.1,79.2,154.3,79.2z"/>
</svg>
