<svg xmlns="http://www.w3.org/2000/svg" width="128" height="32" viewBox="0 0 128 32"><g fill="#FF2790"><path d="M23.3 4.1c-2.7-2.7-5.9-4-9.6-4-3.8 0-7 1.3-9.6 4C1.3 6.8 0 10 0 13.7v18.2c2-1.2 3.7-2.8 4.9-4.9.4-.7.7-1.3 1-2 .6.4 1.3.8 2 1.1 1.8.8 3.7 1.2 5.7 1.2 3.8 0 7-1.3 9.6-4 2.7-2.7 4-5.9 4-9.6.1-3.7-1.3-6.9-3.9-9.6zm-4.9 14.4c-1.3 1.3-2.9 2-4.8 2s-3.5-.7-4.8-2-2-2.9-2-4.8.7-3.5 2-4.8 2.9-2 4.8-2 3.5.7 4.8 2 2 2.9 2 4.8-.6 3.5-2 4.8zM73.6 4.1c-2.7-2.7-5.9-4-9.6-4-3.8 0-7 1.3-9.6 4-2.7 2.7-4 5.9-4 9.6v18.2c2-1.2 3.7-2.8 4.9-4.9.4-.7.7-1.3 1-2 .6.4 1.3.8 2 1.1 1.8.8 3.7 1.2 5.7 1.2 3.8 0 7-1.3 9.6-4 2.7-2.7 4-5.9 4-9.6s-1.4-6.9-4-9.6zm-4.8 14.4c-1.3 1.3-2.9 2-4.8 2s-3.5-.7-4.8-2-2-2.9-2-4.8.7-3.5 2-4.8 2.9-2 4.8-2 3.5.7 4.8 2 2 2.9 2 4.8-.7 3.5-2 4.8zM124 4.1c-2.7-2.7-5.9-4-9.6-4-3.8 0-7 1.3-9.6 4-2.7 2.7-4 5.9-4 9.6v18.2c2-1.2 3.7-2.8 4.9-4.9.4-.7.7-1.3 1-2 .6.4 1.3.8 2 1.1 1.8.8 3.7 1.2 5.7 1.2 3.8 0 7-1.3 9.6-4 2.7-2.7 4-5.9 4-9.6s-1.3-6.9-4-9.6zm-4.8 14.4c-1.3 1.3-2.9 2-4.8 2s-3.5-.7-4.8-2-2-2.9-2-4.8.7-3.5 2-4.8 2.9-2 4.8-2 3.5.7 4.8 2 2 2.9 2 4.8-.7 3.5-2 4.8zM75.4.1h6.8v13.6c0 1.9.7 3.5 2 4.8s2.9 2 4.8 2 3.5-.7 4.8-2 2-2.9 2-4.8V.1h6.8v13.6c0 3.8-1.3 7-4 9.6-2.7 2.7-5.9 4-9.6 4-3.8 0-7-1.3-9.6-4-2.7-2.7-4-5.9-4-9.6V.1zM24.9 13.7c0-3.8 1.3-7 4-9.6 2.7-2.7 5.9-4 9.6-4 3.8 0 7 1.3 9.6 4 2.7 2.7 4 5.9 4 9.6s-1.3 7-4 9.6c-2.7 2.7-5.9 4-9.6 4-3.8 0-7-1.3-9.6-4-2.7-2.6-4-5.8-4-9.6zm20.4 0c0-1.9-.7-3.5-2-4.8s-2.9-2-4.8-2-3.5.7-4.8 2-2 2.9-2 4.8.7 3.5 2 4.8 2.9 2 4.8 2 3.5-.7 4.8-2 2-2.9 2-4.8z"/></g></svg>